# xmcd
#
# Track frame offsets: 
#        150
#        12998
#        32690
#        42380
#        68576
#        87024
#        99948
#        119004
#        142734
#        155715
#        174064
#        188610
#        204428
#        225452
#        238736
#        256700
#        269729
#
# Disc length: 3957 seconds
#
# Revision: 0
# Processed by: cddbd v1.5.2PL0 Copyright (c) Steve Scherf et al.
# Submitted via: ExactAudioCopy v0.99pb5
#
DISCID=d50f7311
DTITLE=Sky High - Still Rockin'
DYEAR=2005
DGENRE=Blues
TTITLE0=Danger In The Night
TTITLE1=Autumn City Nights
TTITLE2=We Ain't Getting Old!
TTITLE3=Starting Over Again
TTITLE4=On The Outside Blues
TTITLE5=I'm Still Rockin'
TTITLE6=Fallen Angel
TTITLE7=Hard Working Man
TTITLE8=Love Your Life
TTITLE9=Restless Love
TTITLE10=I'm Still Rockin' - Demo
TTITLE11=On The Outside Blues - Demo
TTITLE12=Hard Working Man - Demo
TTITLE13=Danger In The Night - Demo
TTITLE14=Autumn City Nights - Demo
TTITLE15=Love Your Life - Demo
TTITLE16=Ramblin On My Mind - Live
EXTD=
EXTT0=
EXTT1=
EXTT2=
EXTT3=
EXTT4=
EXTT5=
EXTT6=
EXTT7=
EXTT8=
EXTT9=
EXTT10=
EXTT11=
EXTT12=
EXTT13=
EXTT14=
EXTT15=
EXTT16=
PLAYORDER=
